<svg xmlns="http://www.w3.org/2000/svg" viewBox="0 0 920 620" role="img" aria-labelledby="title desc">
  <title id="title">Thermal label rolls and shipping desk</title>
  <desc id="desc">Illustration of IVLYA thermal labels, cartons, printer, and packages.</desc>
  <defs>
    <linearGradient id="bg" x1="0" y1="0" x2="1" y2="1">
      <stop offset="0" stop-color="#f7fbff"/>
      <stop offset="1" stop-color="#dcecff"/>
    </linearGradient>
    <linearGradient id="blue" x1="0" y1="0" x2="1" y2="1">
      <stop offset="0" stop-color="#1f5fc4"/>
      <stop offset="1" stop-color="#082b61"/>
    </linearGradient>
    <filter id="shadow" x="-20%" y="-20%" width="140%" height="140%">
      <feDropShadow dx="0" dy="18" stdDeviation="18" flood-color="#0d3f8a" flood-opacity=".22"/>
    </filter>
  </defs>
  <rect width="920" height="620" rx="38" fill="url(#bg)"/>
  <path d="M58 485c165-82 308-74 430 23 88 70 223 77 374 22v90H58z" fill="#cfe2fb"/>
  <g filter="url(#shadow)">
    <rect x="468" y="238" width="280" height="172" rx="24" fill="#f7f9fd"/>
    <rect x="500" y="272" width="210" height="58" rx="12" fill="#e9eff8"/>
    <rect x="530" y="330" width="150" height="52" rx="8" fill="#fff"/>
    <rect x="548" y="346" width="114" height="8" rx="4" fill="#0d3f8a"/>
    <rect x="548" y="362" width="76" height="8" rx="4" fill="#ff9f1a"/>
    <circle cx="705" cy="370" r="12" fill="#1f5fc4"/>
  </g>
  <g filter="url(#shadow)">
    <rect x="112" y="330" width="210" height="148" rx="8" fill="#dcb77f"/>
    <path d="M112 364h210" stroke="#ba915b" stroke-width="4"/>
    <path d="M218 330v148" stroke="#ba915b" stroke-width="4"/>
    <rect x="137" y="386" width="78" height="52" rx="4" fill="#fff"/>
    <path d="M150 404h50M150 418h36" stroke="#0d3f8a" stroke-width="6" stroke-linecap="round"/>
  </g>
  <g filter="url(#shadow)">
    <ellipse cx="292" cy="213" rx="96" ry="96" fill="#ffffff"/>
    <ellipse cx="292" cy="213" rx="55" ry="55" fill="#eaf1fb"/>
    <ellipse cx="292" cy="213" rx="24" ry="24" fill="#fff"/>
    <path d="M205 253c28 37 91 52 143 20" fill="none" stroke="#0d3f8a" stroke-width="12" stroke-linecap="round"/>
  </g>
  <g filter="url(#shadow)">
    <rect x="348" y="98" width="116" height="212" rx="26" fill="#fff"/>
    <rect x="376" y="130" width="60" height="148" rx="8" fill="#f1f6ff"/>
    <path d="M387 158h38M387 180h38M387 202h38" stroke="#1f5fc4" stroke-width="6" stroke-linecap="round"/>
  </g>
  <g filter="url(#shadow)">
    <rect x="593" y="92" width="124" height="184" rx="22" fill="#fff"/>
    <path d="M624 130h62M624 154h48M624 202h62" stroke="#0d3f8a" stroke-width="8" stroke-linecap="round"/>
    <rect x="624" y="172" width="62" height="14" rx="7" fill="#ff9f1a"/>
  </g>
  <g filter="url(#shadow)">
    <rect x="610" y="432" width="170" height="92" rx="18" fill="#ffffff"/>
    <path d="M635 462h118M635 486h76" stroke="#0d3f8a" stroke-width="8" stroke-linecap="round"/>
  </g>
  <circle cx="150" cy="112" r="38" fill="#ff9f1a" opacity=".9"/>
  <circle cx="788" cy="158" r="28" fill="#1f5fc4" opacity=".18"/>
  <circle cx="804" cy="394" r="44" fill="#ff9f1a" opacity=".16"/>
</svg>
