<svg xmlns="http://www.w3.org/2000/svg" viewBox="0 0 720 560" role="img" aria-labelledby="title desc">
  <title id="title">IVLYA thermal label rolls</title>
  <desc id="desc">Stacked label rolls with shipping labels and carton packing.</desc>
  <defs>
    <linearGradient id="surface" x1="0" y1="0" x2="1" y2="1">
      <stop offset="0" stop-color="#ffffff"/>
      <stop offset="1" stop-color="#edf5ff"/>
    </linearGradient>
    <filter id="shadow" x="-20%" y="-20%" width="140%" height="140%">
      <feDropShadow dx="0" dy="18" stdDeviation="16" flood-color="#0d3f8a" flood-opacity=".16"/>
    </filter>
  </defs>
  <rect width="720" height="560" rx="30" fill="#f6f9ff"/>
  <ellipse cx="356" cy="465" rx="250" ry="38" fill="#c7d9ef"/>
  <g filter="url(#shadow)">
    <rect x="88" y="314" width="184" height="120" rx="8" fill="#d7ad75"/>
    <path d="M88 350h184M180 314v120" stroke="#b78c55" stroke-width="4"/>
    <rect x="112" y="365" width="74" height="44" rx="4" fill="#fff"/>
    <path d="M126 382h44M126 397h30" stroke="#0d3f8a" stroke-width="5" stroke-linecap="round"/>
  </g>
  <g filter="url(#shadow)">
    <circle cx="316" cy="238" r="116" fill="#fff"/>
    <circle cx="316" cy="238" r="70" fill="#eef4ff"/>
    <circle cx="316" cy="238" r="30" fill="#fff"/>
    <path d="M222 287c54 45 142 39 188-8" fill="none" stroke="#0d3f8a" stroke-width="13" stroke-linecap="round"/>
  </g>
  <g filter="url(#shadow)">
    <circle cx="478" cy="274" r="88" fill="#fff"/>
    <circle cx="478" cy="274" r="50" fill="#eef4ff"/>
    <circle cx="478" cy="274" r="22" fill="#fff"/>
    <path d="M411 318c40 30 97 25 132-6" fill="none" stroke="#ff9f1a" stroke-width="11" stroke-linecap="round"/>
  </g>
  <g filter="url(#shadow)">
    <rect x="406" y="106" width="118" height="210" rx="22" fill="url(#surface)"/>
    <path d="M436 145h58M436 170h42M436 217h58" stroke="#0d3f8a" stroke-width="8" stroke-linecap="round"/>
    <rect x="436" y="190" width="58" height="14" rx="7" fill="#ff9f1a"/>
  </g>
  <g filter="url(#shadow)">
    <rect x="512" y="356" width="118" height="78" rx="16" fill="#fff"/>
    <path d="M535 383h72M535 405h46" stroke="#0d3f8a" stroke-width="7" stroke-linecap="round"/>
  </g>
</svg>
